<?xml version="1.0" encoding="UTF-8"?>
<!DOCTYPE svg PUBLIC "-//W3C//DTD SVG 1.1//EN" "http://www.w3.org/Graphics/SVG/1.1/DTD/svg11.dtd">
<svg xmlns="http://www.w3.org/2000/svg" version="1.1" width="115px" height="177px" style="shape-rendering:geometricPrecision; text-rendering:geometricPrecision; image-rendering:optimizeQuality; fill-rule:evenodd; clip-rule:evenodd" xmlns:xlink="http://www.w3.org/1999/xlink">
<g><path style="opacity:0.998" fill="#1dbee1" d="M 10.5,-0.5 C 41.1667,-0.5 71.8333,-0.5 102.5,-0.5C 104.144,0.316435 105.31,1.64977 106,3.5C 106.5,55.4989 106.667,107.499 106.5,159.5C 105.71,160.794 104.71,161.961 103.5,163C 99.2037,163.964 94.8704,164.797 90.5,165.5C 88.5,168.167 86.5,168.167 84.5,165.5C 66.1667,164.167 47.8333,164.167 29.5,165.5C 27.5,168.167 25.5,168.167 23.5,165.5C 19.5408,164.673 15.5408,164.173 11.5,164C 9.67694,163.003 8.01027,161.836 6.5,160.5C 6.33334,108.166 6.50001,55.8323 7,3.5C 7.68972,1.64977 8.85639,0.316435 10.5,-0.5 Z M 100.5,136.5 C 100.666,143.175 100.5,149.842 100,156.5C 98.9887,157.337 97.8221,157.67 96.5,157.5C 97.0717,155.053 98.0717,152.386 99.5,149.5C 99.1151,145.538 99.1151,141.538 99.5,137.5C 99.5,136.833 99.8333,136.5 100.5,136.5 Z M 70.5,152.5 C 72.4456,153.035 73.4456,154.368 73.5,156.5C 70.8333,156.5 68.1667,156.5 65.5,156.5C 67.3492,155.407 69.0158,154.074 70.5,152.5 Z"/></g>
<g><path style="opacity:0.723" fill="#50c5df" d="M 100.5,44.5 C 98.5891,44.4257 97.4224,43.4257 97,41.5C 94.6814,36.1004 93.8481,30.6004 94.5,25C 93.3377,22.1836 92.1711,19.3503 91,16.5C 84.6191,12.9616 80.7857,14.7949 79.5,22C 79.9574,22.414 80.2907,22.914 80.5,23.5C 78.0158,34.0404 76.3492,44.7071 75.5,55.5C 55.5,55.5 35.5,55.5 15.5,55.5C 15.5,56.8333 15.5,58.1667 15.5,59.5C 24.1667,59.5 32.8333,59.5 41.5,59.5C 38.0147,62.5663 34.348,64.733 30.5,66C 30.8333,66.3333 31.1667,66.6667 31.5,67C 29.7406,67.9804 28.0739,68.647 26.5,69C 28.438,75.5485 29.1046,82.3818 28.5,89.5C 27.1667,89.5 25.8333,89.5 24.5,89.5C 24.6662,83.4908 24.4995,77.4908 24,71.5C 22.984,72.6341 22.3173,72.3008 22,70.5C 19.3503,72.0999 16.6837,74.4332 14,77.5C 13.6174,76.944 13.1174,76.6107 12.5,76.5C 12.1674,61.8182 12.5007,47.1515 13.5,32.5C 14.3148,30.7241 15.4815,30.0574 17,30.5C 17.3333,29.5 17.6667,28.5 18,27.5C 18.3333,27.8333 18.6667,28.1667 19,28.5C 20.4411,27.7402 21.9411,27.0736 23.5,26.5C 24.3303,32.4725 24.8303,38.4725 25,44.5C 26.0113,45.3366 27.1779,45.67 28.5,45.5C 28.1858,37.9129 28.5192,30.4129 29.5,23C 33.8332,20.5607 37.9999,18.7274 42,17.5C 44.1485,16.0226 45.4818,14.0226 46,11.5C 46.3076,12.3081 46.8076,12.9747 47.5,13.5C 51.9058,11.0906 56.2391,8.59064 60.5,6C 73.742,5.17795 86.9086,5.34462 100,6.5C 100.5,19.1623 100.667,31.8289 100.5,44.5 Z"/></g>
<g><path style="opacity:0.754" fill="#87d8e7" d="M 100.5,44.5 C 100.5,48.1667 100.5,51.8333 100.5,55.5C 92.1667,55.5 83.8333,55.5 75.5,55.5C 76.3492,44.7071 78.0158,34.0404 80.5,23.5C 80.2907,22.914 79.9574,22.414 79.5,22C 80.7857,14.7949 84.6191,12.9616 91,16.5C 92.1711,19.3503 93.3377,22.1836 94.5,25C 93.8481,30.6004 94.6814,36.1004 97,41.5C 97.4224,43.4257 98.5891,44.4257 100.5,44.5 Z"/></g>
<g><path style="opacity:0.496" fill="#74cadd" d="M 41.5,59.5 C 52.1667,59.5 62.8333,59.5 73.5,59.5C 73.249,63.1794 72.0823,66.5128 70,69.5C 69,69.5 68,69.5 67,69.5C 66.0853,70.3279 65.4186,71.3279 65,72.5C 64.2825,71.5494 63.4491,71.3828 62.5,72C 63.3402,73.6665 62.8402,73.8331 61,72.5C 60,73.8333 59,75.1667 58,76.5C 57.586,76.0426 57.086,75.7093 56.5,75.5C 52.0789,77.7924 47.9123,80.4591 44,83.5C 43.6667,83.1667 43.3333,82.8333 43,82.5C 42.7165,84.8856 41.7165,85.5523 40,84.5C 38,85.1667 36.6667,86.5 36,88.5C 35.6667,88.1667 35.3333,87.8333 35,87.5C 31.8613,88.8009 29.1946,90.8009 27,93.5C 26.6667,93.1667 26.3333,92.8333 26,92.5C 24.9326,93.1905 23.7659,93.6905 22.5,94C 22.8333,94.3333 23.1667,94.6667 23.5,95C 19.9356,97.6025 16.2689,99.4358 12.5,100.5C 12.5,92.5 12.5,84.5 12.5,76.5C 13.1174,76.6107 13.6174,76.944 14,77.5C 16.6837,74.4332 19.3503,72.0999 22,70.5C 22.3173,72.3008 22.984,72.6341 24,71.5C 24.4995,77.4908 24.6662,83.4908 24.5,89.5C 25.8333,89.5 27.1667,89.5 28.5,89.5C 29.1046,82.3818 28.438,75.5485 26.5,69C 28.0739,68.647 29.7406,67.9804 31.5,67C 31.1667,66.6667 30.8333,66.3333 30.5,66C 34.348,64.733 38.0147,62.5663 41.5,59.5 Z"/></g>
<g><path style="opacity:0.463" fill="#d4e6ea" d="M 100.5,113.5 C 100.5,121.167 100.5,128.833 100.5,136.5C 99.8333,136.5 99.5,136.833 99.5,137.5C 96.1315,134.759 96.1315,132.259 99.5,130C 98.9896,128.174 98.1562,128.007 97,129.5C 96.3828,128.551 96.5494,127.718 97.5,127C 96.5,126.167 95.5,125.333 94.5,124.5C 94.7093,123.914 95.0426,123.414 95.5,123C 93.8296,120.613 92.163,118.279 90.5,116C 91.6,110.405 89.9333,105.571 85.5,101.5C 84.1861,102.313 83.0195,103.313 82,104.5C 81.2928,113.867 79.1261,122.2 75.5,129.5C 76.6394,131.396 75.9728,132.396 73.5,132.5C 74.9526,131.175 74.6192,130.342 72.5,130C 74.3008,129.683 74.6341,129.016 73.5,128C 76.8172,119.323 78.8172,110.157 79.5,100.5C 79.8417,91.5913 81.5083,83.258 84.5,75.5C 87.1511,74.9528 88.6511,76.2861 89,79.5C 91.1474,91.0953 93.9807,102.429 97.5,113.5C 98.5,113.5 99.5,113.5 100.5,113.5 Z"/></g>
<g><path style="opacity:0.36" fill="#8ccedc" d="M 73.5,59.5 C 75.5,59.5 77.5,59.5 79.5,59.5C 77.9927,67.8628 76.3261,76.1961 74.5,84.5C 72.3818,88.0918 69.8818,91.4251 67,94.5C 66.6667,94.1667 66.3333,93.8333 66,93.5C 63.3308,96.1642 60.1641,97.9976 56.5,99C 54.9543,102.526 52.4543,103.693 49,102.5C 45.3457,103.495 42.3457,105.495 40,108.5C 37.4019,107.902 35.5686,109.069 34.5,112C 32.5,112.667 30.5,113.333 28.5,114C 29.1667,114.333 29.8333,114.667 30.5,115C 28.3825,115.26 26.7158,116.26 25.5,118C 24.2161,118.684 23.0495,118.517 22,117.5C 18.3837,119.842 15.2171,121.842 12.5,123.5C 12.5,115.833 12.5,108.167 12.5,100.5C 16.2689,99.4358 19.9356,97.6025 23.5,95C 23.1667,94.6667 22.8333,94.3333 22.5,94C 23.7659,93.6905 24.9326,93.1905 26,92.5C 26.3333,92.8333 26.6667,93.1667 27,93.5C 29.1946,90.8009 31.8613,88.8009 35,87.5C 35.3333,87.8333 35.6667,88.1667 36,88.5C 36.6667,86.5 38,85.1667 40,84.5C 41.7165,85.5523 42.7165,84.8856 43,82.5C 43.3333,82.8333 43.6667,83.1667 44,83.5C 47.9123,80.4591 52.0789,77.7924 56.5,75.5C 57.086,75.7093 57.586,76.0426 58,76.5C 59,75.1667 60,73.8333 61,72.5C 62.8402,73.8331 63.3402,73.6665 62.5,72C 63.4491,71.3828 64.2825,71.5494 65,72.5C 65.4186,71.3279 66.0853,70.3279 67,69.5C 68,69.5 69,69.5 70,69.5C 72.0823,66.5128 73.249,63.1794 73.5,59.5 Z"/></g>
<g><path style="opacity:0.335" fill="#f2f6f7" d="M 99.5,137.5 C 99.1151,141.538 99.1151,145.538 99.5,149.5C 98.0717,152.386 97.0717,155.053 96.5,157.5C 92.1667,157.5 87.8333,157.5 83.5,157.5C 79.8508,157.317 76.5174,156.983 73.5,156.5C 73.4456,154.368 72.4456,153.035 70.5,152.5C 71.842,151.207 73.5087,150.374 75.5,150C 74.2068,149.51 72.8734,149.343 71.5,149.5C 72.3331,147.248 72.3331,145.081 71.5,143C 72.0682,140.316 73.0682,137.816 74.5,135.5C 73.8728,134.583 73.5394,133.583 73.5,132.5C 75.9728,132.396 76.6394,131.396 75.5,129.5C 79.1261,122.2 81.2928,113.867 82,104.5C 83.0195,103.313 84.1861,102.313 85.5,101.5C 89.9333,105.571 91.6,110.405 90.5,116C 92.163,118.279 93.8296,120.613 95.5,123C 95.0426,123.414 94.7093,123.914 94.5,124.5C 95.5,125.333 96.5,126.167 97.5,127C 96.5494,127.718 96.3828,128.551 97,129.5C 98.1562,128.007 98.9896,128.174 99.5,130C 96.1315,132.259 96.1315,134.759 99.5,137.5 Z"/></g>
<g><path style="opacity:0.228" fill="#aad4de" d="M 79.5,59.5 C 86.5,59.5 93.5,59.5 100.5,59.5C 100.5,77.5 100.5,95.5 100.5,113.5C 99.5,113.5 98.5,113.5 97.5,113.5C 93.9807,102.429 91.1474,91.0953 89,79.5C 88.6511,76.2861 87.1511,74.9528 84.5,75.5C 81.5083,83.258 79.8417,91.5913 79.5,100.5C 77.5716,104.176 76.2383,108.176 75.5,112.5C 74.6948,114.472 73.3615,115.972 71.5,117C 72.6719,118.868 72.5053,120.702 71,122.5C 67.7222,121.057 64.5556,121.224 61.5,123C 63.9011,123.805 63.7344,124.638 61,125.5C 60.0255,123.122 59.3589,123.456 59,126.5C 58.3333,125.833 57.6667,125.167 57,124.5C 56.7398,126.618 55.7398,128.284 54,129.5C 52.2367,129.694 50.4033,129.694 48.5,129.5C 47.8333,130.5 47.1667,131.5 46.5,132.5C 46.7036,131.471 46.2036,130.471 45,129.5C 43.6648,131.76 42.1648,133.927 40.5,136C 38.873,135.57 37.373,135.404 36,135.5C 34.6764,136.88 33.3431,137.214 32,136.5C 31.6827,138.301 31.016,138.634 30,137.5C 28.4472,139.694 26.2805,140.86 23.5,141C 23.8333,141.333 24.1667,141.667 24.5,142C 21.0606,142.441 18.3939,144.108 16.5,147C 17.1667,147.333 17.8333,147.667 18.5,148C 16.3215,148.442 15.6548,149.442 16.5,151C 15.086,152.993 14.086,155.16 13.5,157.5C 12.5052,146.346 12.1719,135.012 12.5,123.5C 15.2171,121.842 18.3837,119.842 22,117.5C 23.0495,118.517 24.2161,118.684 25.5,118C 26.7158,116.26 28.3825,115.26 30.5,115C 29.8333,114.667 29.1667,114.333 28.5,114C 30.5,113.333 32.5,112.667 34.5,112C 35.5686,109.069 37.4019,107.902 40,108.5C 42.3457,105.495 45.3457,103.495 49,102.5C 52.4543,103.693 54.9543,102.526 56.5,99C 60.1641,97.9976 63.3308,96.1642 66,93.5C 66.3333,93.8333 66.6667,94.1667 67,94.5C 69.8818,91.4251 72.3818,88.0918 74.5,84.5C 76.3261,76.1961 77.9927,67.8628 79.5,59.5 Z"/></g>
<g><path style="opacity:0.99" fill="#1cbee2" d="M 90.5,138.5 C 91.8333,138.5 93.1667,138.5 94.5,138.5C 94.6657,142.846 94.499,147.179 94,151.5C 89.5986,152.467 85.0986,152.8 80.5,152.5C 80.5,151.167 80.5,149.833 80.5,148.5C 83.8333,148.5 87.1667,148.5 90.5,148.5C 90.5,145.167 90.5,141.833 90.5,138.5 Z"/></g>
<g><path style="opacity:0.165" fill="#bdd4da" d="M 79.5,100.5 C 78.8172,110.157 76.8172,119.323 73.5,128C 74.6341,129.016 74.3008,129.683 72.5,130C 74.6192,130.342 74.9526,131.175 73.5,132.5C 73.5394,133.583 73.8728,134.583 74.5,135.5C 73.0682,137.816 72.0682,140.316 71.5,143C 72.3331,145.081 72.3331,147.248 71.5,149.5C 72.8734,149.343 74.2068,149.51 75.5,150C 73.5087,150.374 71.842,151.207 70.5,152.5C 69.0158,154.074 67.3492,155.407 65.5,156.5C 64.8333,156.833 64.1667,157.167 63.5,157.5C 59.3467,156.834 55.0134,156.501 50.5,156.5C 43.2757,156.372 36.2757,157.039 29.5,158.5C 24.0735,158.782 18.7401,158.449 13.5,157.5C 14.086,155.16 15.086,152.993 16.5,151C 15.6548,149.442 16.3215,148.442 18.5,148C 17.8333,147.667 17.1667,147.333 16.5,147C 18.3939,144.108 21.0606,142.441 24.5,142C 24.1667,141.667 23.8333,141.333 23.5,141C 26.2805,140.86 28.4472,139.694 30,137.5C 31.016,138.634 31.6827,138.301 32,136.5C 33.3431,137.214 34.6764,136.88 36,135.5C 37.373,135.404 38.873,135.57 40.5,136C 42.1648,133.927 43.6648,131.76 45,129.5C 46.2036,130.471 46.7036,131.471 46.5,132.5C 47.1667,131.5 47.8333,130.5 48.5,129.5C 50.4033,129.694 52.2367,129.694 54,129.5C 55.7398,128.284 56.7398,126.618 57,124.5C 57.6667,125.167 58.3333,125.833 59,126.5C 59.3589,123.456 60.0255,123.122 61,125.5C 63.7344,124.638 63.9011,123.805 61.5,123C 64.5556,121.224 67.7222,121.057 71,122.5C 72.5053,120.702 72.6719,118.868 71.5,117C 73.3615,115.972 74.6948,114.472 75.5,112.5C 76.2383,108.176 77.5716,104.176 79.5,100.5 Z"/></g>
<g><path style="opacity:0.076" fill="#90a5ca" d="M 63.5,157.5 C 62.209,157.263 61.209,157.596 60.5,158.5C 50.1667,158.5 39.8333,158.5 29.5,158.5C 36.2757,157.039 43.2757,156.372 50.5,156.5C 55.0134,156.501 59.3467,156.834 63.5,157.5 Z"/></g>
<g><path style="opacity:0.051" fill="#3c5fb8" d="M 65.5,156.5 C 68.1667,156.5 70.8333,156.5 73.5,156.5C 76.5174,156.983 79.8508,157.317 83.5,157.5C 76.0182,158.492 68.3516,158.825 60.5,158.5C 61.209,157.596 62.209,157.263 63.5,157.5C 64.1667,157.167 64.8333,156.833 65.5,156.5 Z"/></g>
<g><path style="opacity:0.807" fill="#184ca4" d="M 106.5,159.5 C 109.881,160.182 112.548,161.849 114.5,164.5C 114.5,165.167 114.5,165.833 114.5,166.5C 113.167,167.167 113.167,167.833 114.5,168.5C 114.5,168.833 114.5,169.167 114.5,169.5C 112.589,171.316 110.256,172.483 107.5,173C 98.0595,174.5 88.7262,175.666 79.5,176.5C 64.1667,176.5 48.8333,176.5 33.5,176.5C 24.6169,175.597 15.6169,174.431 6.5,173C 5.23965,171.887 4.07298,171.72 3,172.5C 0.550406,169.622 -0.11626,166.288 1,162.5C 2.5843,161.139 4.41764,160.472 6.5,160.5C 8.01027,161.836 9.67694,163.003 11.5,164C 15.5408,164.173 19.5408,164.673 23.5,165.5C 25.5,168.167 27.5,168.167 29.5,165.5C 47.8333,164.167 66.1667,164.167 84.5,165.5C 86.5,168.167 88.5,168.167 90.5,165.5C 94.8704,164.797 99.2037,163.964 103.5,163C 104.71,161.961 105.71,160.794 106.5,159.5 Z"/></g>
</svg>
