<svg width="1080" height="1080" viewBox="0 0 1080 1080" fill="none" xmlns="http://www.w3.org/2000/svg">
<path fill-rule="evenodd" clip-rule="evenodd" d="M810 555H266C266 724.405 266 809.13 305.848 861.735C316.278 875.436 328.763 886.102 342.5 893.046V959.308C342.5 977.906 353.924 993 368 993H402C408.763 993 415.249 989.45 420.031 983.132C424.813 976.813 427.5 968.243 427.5 959.308V912.273C457.93 914.385 494.208 914.385 538 914.385C581.792 914.385 618.07 914.385 648.5 912.273V959.308C648.5 977.906 659.924 993 674 993H708C714.763 993 721.249 989.45 726.031 983.132C730.813 976.813 733.5 968.243 733.5 959.308V893.046C747.237 886.102 759.722 875.436 770.152 861.735C810 809.13 810 724.405 810 555Z" fill="white"/>
<path fill-rule="evenodd" clip-rule="evenodd" d="M810 555H266C266 724.405 266 809.13 305.793 861.735C316.208 875.436 328.676 886.102 342.394 893.046V959.308C342.394 977.906 353.802 993 367.859 993H401.811C408.565 993 415.224 989.819 420 983.5C424.776 977.181 427.5 968.436 427.5 959.5V912.5C457.888 914.611 552.749 916.727 597.983 756.156C628.918 646.343 779.612 557.111 810 555Z" fill="#0667FD"/>
<path d="M266 447.421C266 277.528 266 192.558 305.848 139.802C345.696 87.0451 409.786 87 538 87C666.214 87 730.338 87 770.152 139.802C809.966 192.603 810 277.528 810 447.421V515H266V447.421Z" fill="white"/>
<path d="M266 515C483.104 479.332 417.784 448.201 494.053 352.514C533.321 303.249 481.216 200.443 558.996 87C687.14 87 735.929 91.808 775.722 144C815.514 196.192 810 280.287 810 448.219V515H266Z" fill="#0667FD"/>
<path d="M613 636C613 621.088 622.154 614 633.447 614L748.553 609C759.846 609 769 621.088 769 636C769 650.912 759.846 663 748.553 663L633.447 658.5C622.154 658.5 613 650.912 613 636Z" fill="#02255B"/>
<path d="M625.874 635.5C625.874 629.701 627.162 630 631.553 630L654.272 625C658.663 625 662.223 629.701 662.223 635.5C662.223 641.299 658.663 646 654.272 646L631.553 640.5C627.162 640.5 625.874 641.299 625.874 635.5Z" fill="white"/>
</svg>
